<svg height="702" width="720" xmlns="http://www.w3.org/2000/svg">
<rect height="702" fill="#555" width="720"></rect>
<text fill="#7f7" font-family="Courier New" font-size="12" xml:space="preserve">
<tspan x="10" y="26">19 megabytes installed</tspan>
<tspan x="10" y="42"></tspan>
<tspan x="10" y="58">node_modules</tspan>
<tspan x="10" y="74">└─┬ vulcanize@1.15.4 </tspan>
<tspan x="10" y="90">  ├─┬ dom5@1.3.6 </tspan>
<tspan x="10" y="106">  │ ├── @types/clone@0.1.30 </tspan>
<tspan x="10" y="122">  │ ├── @types/node@4.2.6 </tspan>
<tspan x="10" y="138">  │ ├─┬ @types/parse5@0.0.31 </tspan>
<tspan x="10" y="154">  │ │ └── @types/node@6.0.70 </tspan>
<tspan x="10" y="170">  │ ├── clone@1.0.2 </tspan>
<tspan x="10" y="186">  │ └── parse5@1.5.1 </tspan>
<tspan x="10" y="202">  ├── es6-promise@2.3.0 </tspan>
<tspan x="10" y="218">  ├─┬ hydrolysis@1.24.1 </tspan>
<tspan x="10" y="234">  │ ├─┬ babel-polyfill@6.23.0 </tspan>
<tspan x="10" y="250">  │ │ ├── babel-runtime@6.23.0 </tspan>
<tspan x="10" y="266">  │ │ ├── core-js@2.4.1 </tspan>
<tspan x="10" y="282">  │ │ └── regenerator-runtime@0.10.3 </tspan>
<tspan x="10" y="298">  │ ├─┬ doctrine@0.7.2 </tspan>
<tspan x="10" y="314">  │ │ ├── esutils@1.1.6 </tspan>
<tspan x="10" y="330">  │ │ └── isarray@0.0.1 </tspan>
<tspan x="10" y="346">  │ ├─┬ escodegen@1.8.1 </tspan>
<tspan x="10" y="362">  │ │ ├── esprima@2.7.3 </tspan>
<tspan x="10" y="378">  │ │ ├── estraverse@1.9.3 </tspan>
<tspan x="10" y="394">  │ │ ├── esutils@2.0.2 </tspan>
<tspan x="10" y="410">  │ │ ├─┬ optionator@0.8.2 </tspan>
<tspan x="10" y="426">  │ │ │ ├── deep-is@0.1.3 </tspan>
<tspan x="10" y="442">  │ │ │ ├── fast-levenshtein@2.0.6 </tspan>
<tspan x="10" y="458">  │ │ │ ├── levn@0.3.0 </tspan>
<tspan x="10" y="474">  │ │ │ ├── prelude-ls@1.1.2 </tspan>
<tspan x="10" y="490">  │ │ │ ├── type-check@0.3.2 </tspan>
<tspan x="10" y="506">  │ │ │ └── wordwrap@1.0.0 </tspan>
<tspan x="10" y="522">  │ │ └─┬ source-map@0.2.0 </tspan>
<tspan x="10" y="538">  │ │   └── amdefine@1.0.1 </tspan>
<tspan x="10" y="554">  │ ├─┬ espree@3.4.2 </tspan>
<tspan x="10" y="570">  │ │ ├── acorn@5.0.3 </tspan>
<tspan x="10" y="586">  │ │ └─┬ acorn-jsx@3.0.1 </tspan>
<tspan x="10" y="602">  │ │   └── acorn@3.3.0 </tspan>
<tspan x="10" y="618">  │ ├── estraverse@3.1.0 </tspan>
<tspan x="10" y="634">  │ └── path-is-absolute@1.0.1 </tspan>
<tspan x="10" y="650">  ├─┬ nopt@3.0.6 </tspan>
<tspan x="10" y="666">  │ └── abbrev@1.1.0 </tspan>
<tspan x="10" y="682">  └── path-posix@1.0.0</tspan>
</text>
</svg>
